M48
; DRILL file {KiCad 5.1.0-060a0da~80~ubuntu18.04.1} date Tue 09 Apr 2019 08:31:04 PM CDT
; FORMAT={-:-/ absolute / inch / decimal}
; #@! TF.CreationDate,2019-04-09T20:31:04-05:00
; #@! TF.GenerationSoftware,Kicad,Pcbnew,5.1.0-060a0da~80~ubuntu18.04.1
; #@! TF.FileFunction,NonPlated,1,2,NPTH
FMAT,2
INCH
T1C0.0472
T2C0.0709
T3C0.1200
T4C0.1570
%
G90
G05
T1
X3.2859Y-0.0476
T2
X3.175Y-1.3125
X3.575Y-1.3125
X7.3Y-2.0625
X7.7Y-2.0625
X0.925Y-4.3125
X1.325Y-4.3125
X10.2062Y-2.8125
X10.6062Y-2.8125
X2.05Y-2.0625
X2.45Y-2.0625
X2.9875Y-2.8125
X3.3875Y-2.8125
X13.1125Y-0.375
X13.5125Y-0.375
X11.8Y-2.0625
X12.2Y-2.0625
X6.925Y-1.3125
X7.325Y-1.3125
X2.2375Y-2.8125
X2.6375Y-2.8125
X2.05Y-4.3125
X2.45Y-4.3125
X1.675Y-3.5625
X2.075Y-3.5625
X13.3Y-2.0625
X13.7Y-2.0625
X10.8625Y-0.375
X11.2625Y-0.375
X8.9875Y-2.8125
X9.3875Y-2.8125
X9.55Y-2.0625
X9.95Y-2.0625
X3.175Y-3.5625
X3.575Y-3.5625
X1.4875Y-2.8125
X1.8875Y-2.8125
X9.55Y-3.5625
X9.95Y-3.5625
X4.3Y-2.0625
X4.7Y-2.0625
X12.55Y-3.5625
X12.95Y-3.5625
X12.55Y-4.3125
X12.95Y-4.3125
X11.6125Y-1.125
X12.0125Y-1.125
X1.675Y-1.3125
X2.075Y-1.3125
X5.425Y-1.3125
X5.825Y-1.3125
X7.4875Y-2.8125
X7.8875Y-2.8125
X5.9875Y-0.375
X6.3875Y-0.375
X0.55Y-3.5625
X0.95Y-3.5625
X2.425Y-3.5625
X2.825Y-3.5625
X4.4875Y-2.8125
X4.8875Y-2.8125
X6.925Y-3.5625
X7.325Y-3.5625
X1.3Y-2.0625
X1.7Y-2.0625
X6.7375Y-0.375
X7.1375Y-0.375
X5.2375Y-2.8125
X5.6375Y-2.8125
X11.8Y-3.5625
X12.2Y-3.5625
X7.4875Y-0.375
X7.8875Y-0.375
X10.1125Y-4.5
X10.5125Y-4.5
X8.05Y-2.0625
X8.45Y-2.0625
X1.1125Y-0.375
X1.5125Y-0.375
X12.55Y-1.3125
X12.95Y-1.3125
X14.25Y-3.7375
X14.25Y-4.1375
X8.8Y-2.0625
X9.2Y-2.0625
X11.6125Y-0.375
X12.0125Y-0.375
X2.8Y-2.0625
X3.2Y-2.0625
X14.25Y-2.2375
X14.25Y-2.6375
X8.9875Y-4.3125
X9.3875Y-4.3125
X10.4875Y-2.0625
X10.8875Y-2.0625
X8.425Y-3.5625
X8.825Y-3.5625
X11.6125Y-4.5
X12.0125Y-4.5
X7.8625Y-4.3125
X8.2625Y-4.3125
X13.3Y-4.3125
X13.7Y-4.3125
X11.8Y-2.8125
X12.2Y-2.8125
X4.3Y-0.375
X4.7Y-0.375
X3.925Y-1.3125
X4.325Y-1.3125
X2.6125Y-0.375
X3.0125Y-0.375
X3.7375Y-2.8125
X4.1375Y-2.8125
X8.425Y-0.375
X8.825Y-0.375
X12.55Y-2.0625
X12.95Y-2.0625
X0.175Y-1.3125
X0.575Y-1.3125
X9.175Y-1.3125
X9.575Y-1.3125
X7.675Y-1.3125
X8.075Y-1.3125
X13.3Y-3.5625
X13.7Y-3.5625
X0.4562Y-2.8125
X0.8562Y-2.8125
X0.3625Y-2.0625
X0.7625Y-2.0625
X5.05Y-2.0625
X5.45Y-2.0625
X12.3625Y-0.375
X12.7625Y-0.375
X1.8625Y-0.375
X2.2625Y-0.375
X5.8Y-2.0625
X6.2Y-2.0625
X5.425Y-3.5625
X5.825Y-3.5625
X6.7375Y-2.8125
X7.1375Y-2.8125
X0.165Y-0.365
X0.565Y-0.365
X3.55Y-2.0625
X3.95Y-2.0625
X10.8625Y-4.5
X11.2625Y-4.5
X2.425Y-1.3125
X2.825Y-1.3125
X14.05Y-1.3125
X14.45Y-1.3125
X6.175Y-1.3125
X6.575Y-1.3125
X9.925Y-0.375
X10.325Y-0.375
X4.675Y-3.5625
X5.075Y-3.5625
X12.55Y-2.8125
X12.95Y-2.8125
X10.8625Y-3.75
X11.2625Y-3.75
X7.675Y-3.5625
X8.075Y-3.5625
X13.3Y-2.8125
X13.7Y-2.8125
X13.3Y-1.3125
X13.7Y-1.3125
X8.425Y-1.3125
X8.825Y-1.3125
X6.55Y-2.0625
X6.95Y-2.0625
X6.175Y-3.5625
X6.575Y-3.5625
X4.675Y-1.3125
X5.075Y-1.3125
X0.925Y-1.3125
X1.325Y-1.3125
X9.175Y-0.375
X9.575Y-0.375
X4.9562Y-4.3125
X5.3563Y-4.3125
X5.9875Y-2.8125
X6.3875Y-2.8125
X8.2375Y-2.8125
X8.6375Y-2.8125
X10.3Y-1.3125
X10.7Y-1.3125
X3.925Y-3.5625
X4.325Y-3.5625
X5.05Y-0.375
X5.45Y-0.375
X3.55Y-0.375
X3.95Y-0.375
T3
X3.1862Y-4.0375
X7.1262Y-4.0375
X10.03Y-1.0375
X10.97Y-1.0375
X9.9362Y-2.5375
X10.8763Y-2.5375
X9.28Y-3.2875
X10.22Y-3.2875
X0.28Y-3.2875
X1.22Y-3.2875
X14.525Y-3.4675
X14.525Y-4.4075
X14.525Y-1.9675
X14.525Y-2.9075
T4
X9.75Y-2.0625
X3.375Y-3.5625
X1.6875Y-2.8125
X9.28Y-3.8875
X9.75Y-3.5625
X10.22Y-3.8875
X4.5Y-2.0625
X12.75Y-3.5625
X12.75Y-4.3125
X11.8125Y-1.125
X1.875Y-1.3125
X5.625Y-1.3125
X7.6875Y-2.8125
X6.1875Y-0.375
X0.28Y-3.8875
X0.75Y-3.5625
X1.22Y-3.8875
X2.625Y-3.5625
X4.6875Y-2.8125
X7.125Y-3.5625
X1.5Y-2.0625
X6.9375Y-0.375
X5.4375Y-2.8125
X12.0Y-3.5625
X7.6875Y-0.375
X10.3125Y-4.5
X8.25Y-2.0625
X1.3125Y-0.375
X12.75Y-1.3125
X13.925Y-3.4675
X13.925Y-4.4075
X14.25Y-3.9375
X9.0Y-2.0625
X11.8125Y-0.375
X3.0Y-2.0625
X13.925Y-1.9675
X13.925Y-2.9075
X14.25Y-2.4375
X9.1875Y-4.3125
X10.6875Y-2.0625
X8.625Y-3.5625
X11.8125Y-4.5
X8.0625Y-4.3125
X13.5Y-4.3125
X12.0Y-2.8125
X4.5Y-0.375
X4.125Y-1.3125
X2.8125Y-0.375
X3.9375Y-2.8125
X8.625Y-0.375
X12.75Y-2.0625
X0.375Y-1.3125
X9.375Y-1.3125
X7.875Y-1.3125
X13.5Y-3.5625
X0.6562Y-2.8125
X0.5625Y-2.0625
X5.25Y-2.0625
X12.5625Y-0.375
X2.0625Y-0.375
X6.0Y-2.0625
X5.625Y-3.5625
X6.9375Y-2.8125
X0.365Y-0.365
X3.75Y-2.0625
X11.0625Y-4.5
X2.625Y-1.3125
X14.25Y-1.3125
X6.375Y-1.3125
X10.125Y-0.375
X4.875Y-3.5625
X12.75Y-2.8125
X11.0625Y-3.75
X7.875Y-3.5625
X13.5Y-2.8125
X13.5Y-1.3125
X8.625Y-1.3125
X6.75Y-2.0625
X6.375Y-3.5625
X4.875Y-1.3125
X1.125Y-1.3125
X9.375Y-0.375
X3.1862Y-4.6375
X5.1562Y-4.3125
X7.1262Y-4.6375
X6.1875Y-2.8125
X8.4375Y-2.8125
X10.03Y-1.6375
X10.5Y-1.3125
X10.97Y-1.6375
X4.125Y-3.5625
X5.25Y-0.375
X3.75Y-0.375
X3.375Y-1.3125
X7.5Y-2.0625
X1.125Y-4.3125
X9.9362Y-3.1375
X10.4062Y-2.8125
X10.8763Y-3.1375
X2.25Y-2.0625
X3.1875Y-2.8125
X13.3125Y-0.375
X12.0Y-2.0625
X7.125Y-1.3125
X2.4375Y-2.8125
X2.25Y-4.3125
X1.875Y-3.5625
X13.5Y-2.0625
X11.0625Y-0.375
X9.1875Y-2.8125
T0
M30
