G04 #@! TF.GenerationSoftware,KiCad,Pcbnew,5.1.0-060a0da~80~ubuntu18.04.1*
G04 #@! TF.CreationDate,2019-04-09T20:30:58-05:00*
G04 #@! TF.ProjectId,CBC2,43424332-2e6b-4696-9361-645f70636258,rev?*
G04 #@! TF.SameCoordinates,Original*
G04 #@! TF.FileFunction,Paste,Top*
G04 #@! TF.FilePolarity,Positive*
%FSLAX46Y46*%
G04 Gerber Fmt 4.6, Leading zero omitted, Abs format (unit mm)*
G04 Created by KiCad (PCBNEW 5.1.0-060a0da~80~ubuntu18.04.1) date 2019-04-09 20:30:58*
%MOMM*%
%LPD*%
G04 APERTURE LIST*
%ADD10R,1.200000X1.600000*%
%ADD11R,1.600000X1.200000*%
G04 APERTURE END LIST*
D10*
X333375000Y-110937500D03*
X333375000Y-108137500D03*
X314325000Y-110937500D03*
X314325000Y-108137500D03*
X290512500Y-115700000D03*
X290512500Y-112900000D03*
X271462500Y-115700000D03*
X271462500Y-112900000D03*
X252412500Y-115700000D03*
X252412500Y-112900000D03*
X223837500Y-110937500D03*
X223837500Y-108137500D03*
X195262500Y-110937500D03*
X195262500Y-108137500D03*
X121443750Y-110937500D03*
X121443750Y-108137500D03*
X47625000Y-110937500D03*
X47625000Y-108137500D03*
X19050000Y-110937500D03*
X19050000Y-108137500D03*
D11*
X360600000Y-92500000D03*
X363400000Y-92500000D03*
D10*
X333375000Y-91887500D03*
X333375000Y-89087500D03*
X314325000Y-91887500D03*
X314325000Y-89087500D03*
X295275000Y-91887500D03*
X295275000Y-89087500D03*
X271462500Y-96650000D03*
X271462500Y-93850000D03*
X238125000Y-91887500D03*
X238125000Y-89087500D03*
X209550000Y-91887500D03*
X209550000Y-89087500D03*
X190500000Y-91887500D03*
X190500000Y-89087500D03*
X171450000Y-91887500D03*
X171450000Y-89087500D03*
X152400000Y-91887500D03*
X152400000Y-89087500D03*
X133350000Y-91887500D03*
X133350000Y-89087500D03*
X114300000Y-91887500D03*
X114300000Y-89087500D03*
X95250000Y-91887500D03*
X95250000Y-89087500D03*
X76200000Y-91887500D03*
X76200000Y-89087500D03*
X57150000Y-91887500D03*
X57150000Y-89087500D03*
X38100000Y-91887500D03*
X38100000Y-89087500D03*
X9525000Y-91887500D03*
X9525000Y-89087500D03*
X333375000Y-72837500D03*
X333375000Y-70037500D03*
X314325000Y-72837500D03*
X314325000Y-70037500D03*
X295275000Y-72837500D03*
X295275000Y-70037500D03*
X254793750Y-72837500D03*
X254793750Y-70037500D03*
X223837500Y-72837500D03*
X223837500Y-70037500D03*
X204787500Y-72837500D03*
X204787500Y-70037500D03*
X185737500Y-72837500D03*
X185737500Y-70037500D03*
X166687500Y-72837500D03*
X166687500Y-70037500D03*
X147637500Y-72837500D03*
X147637500Y-70037500D03*
X128587500Y-72837500D03*
X128587500Y-70037500D03*
X109537500Y-72837500D03*
X109537500Y-70037500D03*
X90487500Y-72837500D03*
X90487500Y-70037500D03*
X71437500Y-72837500D03*
X71437500Y-70037500D03*
X52387500Y-72837500D03*
X52387500Y-70037500D03*
X33337500Y-72837500D03*
X33337500Y-70037500D03*
X7143750Y-70037500D03*
X7143750Y-72837500D03*
D11*
X360600000Y-54500000D03*
X363400000Y-54500000D03*
D10*
X333375000Y-53787500D03*
X333375000Y-50987500D03*
X314325000Y-53787500D03*
X314325000Y-50987500D03*
X295275000Y-53787500D03*
X295275000Y-50987500D03*
X261937500Y-53787500D03*
X261937500Y-50987500D03*
X238125000Y-53787500D03*
X238125000Y-50987500D03*
X219075000Y-53787500D03*
X219075000Y-50987500D03*
X200025000Y-53787500D03*
X200025000Y-50987500D03*
X180975000Y-53787500D03*
X180975000Y-50987500D03*
X161925000Y-53787500D03*
X161925000Y-50987500D03*
X142875000Y-53787500D03*
X142875000Y-50987500D03*
X123825000Y-53787500D03*
X123825000Y-50987500D03*
X104775000Y-53787500D03*
X104775000Y-50987500D03*
X85725000Y-53787500D03*
X85725000Y-50987500D03*
X66675000Y-53787500D03*
X66675000Y-50987500D03*
X47625000Y-53787500D03*
X47625000Y-50987500D03*
X28575000Y-53787500D03*
X28575000Y-50987500D03*
X4762500Y-53787500D03*
X4762500Y-50987500D03*
X352425000Y-34737500D03*
X352425000Y-31937500D03*
X333375000Y-34737500D03*
X333375000Y-31937500D03*
X314325000Y-34737500D03*
X314325000Y-31937500D03*
X289322510Y-29975000D03*
X289322510Y-27175000D03*
X257175000Y-34737500D03*
X257175000Y-31937500D03*
X228600000Y-34737500D03*
X228600000Y-31937500D03*
X209550000Y-34737500D03*
X209550000Y-31937500D03*
X190500000Y-34737500D03*
X190500000Y-31937500D03*
X171450000Y-34737500D03*
X171450000Y-31937500D03*
X152400000Y-34737500D03*
X152400000Y-31937500D03*
X133350000Y-34737500D03*
X133350000Y-31937500D03*
X114300000Y-34737500D03*
X114300000Y-31937500D03*
X95250000Y-34737500D03*
X95250000Y-31937500D03*
X76200000Y-34737500D03*
X76200000Y-31937500D03*
X57150000Y-34737500D03*
X57150000Y-31937500D03*
X38100000Y-34737500D03*
X38100000Y-31937500D03*
X21431250Y-34737500D03*
X21431250Y-31937500D03*
D11*
X25212500Y-23812500D03*
X22412500Y-23812500D03*
D10*
X352425000Y-17275000D03*
X352425000Y-14475000D03*
X328612500Y-10925000D03*
X328612500Y-8125000D03*
X310753760Y-10925000D03*
X310753760Y-8125000D03*
X289322510Y-10925000D03*
X289322510Y-8125000D03*
X271462500Y-10925000D03*
X271462500Y-8125000D03*
X247650000Y-10925000D03*
X247650000Y-8125000D03*
X228600000Y-10925000D03*
X228600000Y-8125000D03*
X209550000Y-10925000D03*
X209550000Y-8125000D03*
X185737500Y-10925000D03*
X185737500Y-8125000D03*
X166687500Y-10925000D03*
X166687500Y-8125000D03*
X147637500Y-10925000D03*
X147637500Y-8125000D03*
X123825000Y-10925000D03*
X123825000Y-8125000D03*
X104775000Y-10925000D03*
X104775000Y-8125000D03*
X85725000Y-10925000D03*
X85725000Y-8125000D03*
X61912500Y-10925000D03*
X61912500Y-8125000D03*
X42862500Y-10925000D03*
X42862500Y-8125000D03*
X23812500Y-10925000D03*
X23812500Y-8125000D03*
X21431250Y-10925000D03*
X21431250Y-8125000D03*
M02*
