M48
; DRILL file {KiCad 5.1.0-060a0da~80~ubuntu18.04.1} date Tue 09 Apr 2019 08:31:04 PM CDT
; FORMAT={-:-/ absolute / inch / decimal}
; #@! TF.CreationDate,2019-04-09T20:31:04-05:00
; #@! TF.GenerationSoftware,Kicad,Pcbnew,5.1.0-060a0da~80~ubuntu18.04.1
; #@! TF.FileFunction,Plated,1,2,PTH
FMAT,2
INCH
T1C0.0157
T2C0.0276
T3C0.0300
T4C0.0315
T5C0.0354
T6C0.0390
T7C0.0390
T8C0.0394
T9C0.0433
T10C0.0512
T11C0.0591
T12C0.0600
T13C0.2559
%
G90
G05
T1
X-0.1629Y-0.6533
X-0.0197Y0.0591
X0.0089Y0.0861
X0.4872Y-0.5463
X0.8592Y-1.0069
X0.9006Y-0.7419
X0.9887Y-0.842
X1.063Y-0.876
X1.2205Y-1.0138
X1.3973Y-0.8461
X1.4302Y-0.8132
X1.4567Y-0.9941
X2.2539Y-1.7785
X7.0608Y-3.2111
X7.8461Y-3.164
X8.4966Y-2.4951
X8.9272Y-1.4459
X9.2875Y-2.4703
X9.8474Y-1.7901
X10.5413Y-0.9055
X10.7849Y-1.7608
X13.2087Y-1.7421
X13.5992Y-0.8496
X14.0199Y-0.8324
T2
X14.3438Y-0.75
X14.5437Y-0.75
X0.0591Y-1.985
X0.0591Y-2.185
X2.425Y0.0
X2.625Y0.0
X12.0Y0.1875
X12.0Y-0.0125
X11.4375Y0.1875
X11.4375Y-0.0125
X14.3438Y0.0
X14.5437Y0.0
X12.5625Y0.1875
X12.5625Y-0.0125
T3
X4.7508Y-1.1838
X4.7758Y-1.1239
X4.9742Y-1.1239
X4.9992Y-1.1838
X1.0008Y-1.1838
X1.0258Y-1.1239
X1.2242Y-1.1239
X1.2492Y-1.1838
X9.2508Y-0.2463
X9.2758Y-0.1864
X9.4742Y-0.1864
X9.4992Y-0.2463
X6.0633Y-2.6838
X6.0883Y-2.6239
X6.2867Y-2.6239
X6.3117Y-2.6838
X8.3133Y-2.6838
X8.3383Y-2.6239
X8.5367Y-2.6239
X8.5617Y-2.6838
X10.3758Y-1.1838
X10.4008Y-1.1239
X10.5992Y-1.1239
X10.6242Y-1.1838
X4.0008Y-3.4338
X4.0258Y-3.3739
X4.2242Y-3.3739
X4.2492Y-3.4338
X5.1258Y-0.2463
X5.1508Y-0.1864
X5.3492Y-0.1864
X5.3742Y-0.2463
X3.6258Y-0.2463
X3.6508Y-0.1864
X3.8492Y-0.1864
X3.8742Y-0.2463
X3.2508Y-1.1838
X3.2758Y-1.1239
X3.4742Y-1.1239
X3.4992Y-1.1838
X7.3758Y-1.9338
X7.4008Y-1.8739
X7.5992Y-1.8739
X7.6242Y-1.9338
X1.0008Y-4.1838
X1.0258Y-4.1239
X1.2242Y-4.1239
X1.2492Y-4.1838
X10.282Y-2.6838
X10.307Y-2.6239
X10.5055Y-2.6239
X10.5305Y-2.6838
X2.1258Y-1.9338
X2.1508Y-1.8739
X2.3492Y-1.8739
X2.3742Y-1.9338
X3.0633Y-2.6838
X3.0883Y-2.6239
X3.2867Y-2.6239
X3.3117Y-2.6838
X13.1883Y-0.2463
X13.2133Y-0.1864
X13.4117Y-0.1864
X13.4367Y-0.2463
X11.8758Y-1.9338
X11.9008Y-1.8739
X12.0992Y-1.8739
X12.1242Y-1.9338
X7.0008Y-1.1838
X7.0258Y-1.1239
X7.2242Y-1.1239
X7.2492Y-1.1838
X2.3133Y-2.6838
X2.3383Y-2.6239
X2.5367Y-2.6239
X2.5617Y-2.6838
X2.1258Y-4.1838
X2.1508Y-4.1239
X2.3492Y-4.1239
X2.3742Y-4.1838
X1.7508Y-3.4338
X1.7758Y-3.3739
X1.9742Y-3.3739
X1.9992Y-3.4338
X13.3758Y-1.9338
X13.4008Y-1.8739
X13.5992Y-1.8739
X13.6242Y-1.9338
X10.9383Y-0.2463
X10.9633Y-0.1864
X11.1617Y-0.1864
X11.1867Y-0.2463
X9.0633Y-2.6838
X9.0883Y-2.6239
X9.2867Y-2.6239
X9.3117Y-2.6838
X9.6258Y-1.9338
X9.6508Y-1.8739
X9.8492Y-1.8739
X9.8742Y-1.9338
X3.2508Y-3.4338
X3.2758Y-3.3739
X3.4742Y-3.3739
X3.4992Y-3.4338
X1.5633Y-2.6838
X1.5883Y-2.6239
X1.7867Y-2.6239
X1.8117Y-2.6838
X9.6258Y-3.4338
X9.6508Y-3.3739
X9.8492Y-3.3739
X9.8742Y-3.4338
X4.3758Y-1.9338
X4.4008Y-1.8739
X4.5992Y-1.8739
X4.6242Y-1.9338
X12.6258Y-3.4338
X12.6508Y-3.3739
X12.8492Y-3.3739
X12.8742Y-3.4338
X12.6258Y-4.1838
X12.6508Y-4.1239
X12.8492Y-4.1239
X12.8742Y-4.1838
X11.6883Y-0.9963
X11.7133Y-0.9364
X11.9117Y-0.9364
X11.9367Y-0.9963
X1.7508Y-1.1838
X1.7758Y-1.1239
X1.9742Y-1.1239
X1.9992Y-1.1838
X5.5008Y-1.1838
X5.5258Y-1.1239
X5.7242Y-1.1239
X5.7492Y-1.1838
X7.5633Y-2.6838
X7.5883Y-2.6239
X7.7867Y-2.6239
X7.8117Y-2.6838
X6.0633Y-0.2463
X6.0883Y-0.1864
X6.2867Y-0.1864
X6.3117Y-0.2463
X0.6258Y-3.4338
X0.6508Y-3.3739
X0.8492Y-3.3739
X0.8742Y-3.4338
X2.5008Y-3.4338
X2.5258Y-3.3739
X2.7242Y-3.3739
X2.7492Y-3.4338
X4.5633Y-2.6838
X4.5883Y-2.6239
X4.7867Y-2.6239
X4.8117Y-2.6838
X7.0008Y-3.4338
X7.0258Y-3.3739
X7.2242Y-3.3739
X7.2492Y-3.4338
X1.3758Y-1.9338
X1.4008Y-1.8739
X1.5992Y-1.8739
X1.6242Y-1.9338
X6.8133Y-0.2463
X6.8383Y-0.1864
X7.0367Y-0.1864
X7.0617Y-0.2463
X5.3133Y-2.6838
X5.3383Y-2.6239
X5.5367Y-2.6239
X5.5617Y-2.6838
X11.8758Y-3.4338
X11.9008Y-3.3739
X12.0992Y-3.3739
X12.1242Y-3.4338
X7.5633Y-0.2463
X7.5883Y-0.1864
X7.7867Y-0.1864
X7.8117Y-0.2463
X10.1883Y-4.3713
X10.2133Y-4.3114
X10.4117Y-4.3114
X10.4367Y-4.3713
X8.1258Y-1.9338
X8.1508Y-1.8739
X8.3492Y-1.8739
X8.3742Y-1.9338
X1.1883Y-0.2463
X1.2133Y-0.1864
X1.4117Y-0.1864
X1.4367Y-0.2463
X12.6258Y-1.1838
X12.6508Y-1.1239
X12.8492Y-1.1239
X12.8742Y-1.1838
X14.3787Y-3.8133
X14.3787Y-4.0617
X14.4386Y-3.8383
X14.4386Y-4.0367
X8.8758Y-1.9338
X8.9008Y-1.8739
X9.0992Y-1.8739
X9.1242Y-1.9338
X11.6883Y-0.2463
X11.7133Y-0.1864
X11.9117Y-0.1864
X11.9367Y-0.2463
X2.8758Y-1.9338
X2.9008Y-1.8739
X3.0992Y-1.8739
X3.1242Y-1.9338
X14.3787Y-2.3133
X14.3787Y-2.5617
X14.4386Y-2.3383
X14.4386Y-2.5367
X9.0633Y-4.1838
X9.0883Y-4.1239
X9.2867Y-4.1239
X9.3117Y-4.1838
X10.5633Y-1.9338
X10.5883Y-1.8739
X10.7867Y-1.8739
X10.8117Y-1.9338
X8.5008Y-3.4338
X8.5258Y-3.3739
X8.7242Y-3.3739
X8.7492Y-3.4338
X11.6883Y-4.3713
X11.7133Y-4.3114
X11.9117Y-4.3114
X11.9367Y-4.3713
X7.9383Y-4.1838
X7.9633Y-4.1239
X8.1617Y-4.1239
X8.1867Y-4.1838
X13.3758Y-4.1838
X13.4008Y-4.1239
X13.5992Y-4.1239
X13.6242Y-4.1838
X11.8758Y-2.6838
X11.9008Y-2.6239
X12.0992Y-2.6239
X12.1242Y-2.6838
X4.3758Y-0.2463
X4.4008Y-0.1864
X4.5992Y-0.1864
X4.6242Y-0.2463
X4.0008Y-1.1838
X4.0258Y-1.1239
X4.2242Y-1.1239
X4.2492Y-1.1838
X2.6883Y-0.2463
X2.7133Y-0.1864
X2.9117Y-0.1864
X2.9367Y-0.2463
X3.8133Y-2.6838
X3.8383Y-2.6239
X4.0367Y-2.6239
X4.0617Y-2.6838
X8.5008Y-0.2463
X8.5258Y-0.1864
X8.7242Y-0.1864
X8.7492Y-0.2463
X12.6258Y-1.9338
X12.6508Y-1.8739
X12.8492Y-1.8739
X12.8742Y-1.9338
X0.2508Y-1.1838
X0.2758Y-1.1239
X0.4742Y-1.1239
X0.4992Y-1.1838
X9.2508Y-1.1838
X9.2758Y-1.1239
X9.4742Y-1.1239
X9.4992Y-1.1838
X7.7508Y-1.1838
X7.7758Y-1.1239
X7.9742Y-1.1239
X7.9992Y-1.1838
X13.3758Y-3.4338
X13.4008Y-3.3739
X13.5992Y-3.3739
X13.6242Y-3.4338
X0.532Y-2.6838
X0.557Y-2.6239
X0.7555Y-2.6239
X0.7805Y-2.6838
X0.4383Y-1.9338
X0.4633Y-1.8739
X0.6617Y-1.8739
X0.6867Y-1.9338
X5.1258Y-1.9338
X5.1508Y-1.8739
X5.3492Y-1.8739
X5.3742Y-1.9338
X12.4383Y-0.2463
X12.4633Y-0.1864
X12.6617Y-0.1864
X12.6867Y-0.2463
X1.9383Y-0.2463
X1.9633Y-0.1864
X2.1617Y-0.1864
X2.1867Y-0.2463
X5.8758Y-1.9338
X5.9008Y-1.8739
X6.0992Y-1.8739
X6.1242Y-1.9338
X5.5008Y-3.4338
X5.5258Y-3.3739
X5.7242Y-3.3739
X5.7492Y-3.4338
X6.8133Y-2.6838
X6.8383Y-2.6239
X7.0367Y-2.6239
X7.0617Y-2.6838
X0.2408Y-0.2363
X0.2658Y-0.1764
X0.4642Y-0.1764
X0.4892Y-0.2363
X3.6258Y-1.9338
X3.6508Y-1.8739
X3.8492Y-1.8739
X3.8742Y-1.9338
X10.9383Y-4.3713
X10.9633Y-4.3114
X11.1617Y-4.3114
X11.1867Y-4.3713
X2.5008Y-1.1838
X2.5258Y-1.1239
X2.7242Y-1.1239
X2.7492Y-1.1838
X14.1258Y-1.1838
X14.1508Y-1.1239
X14.3492Y-1.1239
X14.3742Y-1.1838
X6.2508Y-1.1838
X6.2758Y-1.1239
X6.4742Y-1.1239
X6.4992Y-1.1838
X10.0008Y-0.2463
X10.0258Y-0.1864
X10.2242Y-0.1864
X10.2492Y-0.2463
X4.7508Y-3.4338
X4.7758Y-3.3739
X4.9742Y-3.3739
X4.9992Y-3.4338
X12.6258Y-2.6838
X12.6508Y-2.6239
X12.8492Y-2.6239
X12.8742Y-2.6838
X10.9383Y-3.6213
X10.9633Y-3.5614
X11.1617Y-3.5614
X11.1867Y-3.6213
X7.7508Y-3.4338
X7.7758Y-3.3739
X7.9742Y-3.3739
X7.9992Y-3.4338
X13.3758Y-2.6838
X13.4008Y-2.6239
X13.5992Y-2.6239
X13.6242Y-2.6838
X13.3758Y-1.1838
X13.4008Y-1.1239
X13.5992Y-1.1239
X13.6242Y-1.1838
X8.5008Y-1.1838
X8.5258Y-1.1239
X8.7242Y-1.1239
X8.7492Y-1.1838
X6.6258Y-1.9338
X6.6508Y-1.8739
X6.8492Y-1.8739
X6.8742Y-1.9338
X6.2508Y-3.4338
X6.2758Y-3.3739
X6.4742Y-3.3739
X6.4992Y-3.4338
T4
X2.7188Y0.0
X3.014Y0.0
X2.625Y0.1875
X2.9203Y0.1875
X13.9688Y-0.75
X14.264Y-0.75
X13.9547Y0.0
X14.25Y0.0
X-0.0938Y-0.75
X-0.0938Y-1.0453
T5
X12.75Y0.1785
X12.75Y0.0785
X12.1875Y0.1785
X12.1875Y0.0785
X11.625Y0.1785
X11.625Y0.0785
T6
X3.1875Y0.0
X3.3844Y0.0
T7
X3.325Y-1.5125
X3.425Y-1.5125
X7.45Y-2.2625
X7.55Y-2.2625
X1.075Y-4.5125
X1.175Y-4.5125
X10.3562Y-3.0125
X10.4562Y-3.0125
X2.2Y-2.2625
X2.3Y-2.2625
X3.1375Y-3.0125
X3.2375Y-3.0125
X13.2625Y-0.575
X13.3625Y-0.575
X11.95Y-2.2625
X12.05Y-2.2625
X7.075Y-1.5125
X7.175Y-1.5125
X2.3875Y-3.0125
X2.4875Y-3.0125
X2.2Y-4.5125
X2.3Y-4.5125
X1.825Y-3.7625
X1.925Y-3.7625
X13.45Y-2.2625
X13.55Y-2.2625
X11.0125Y-0.575
X11.1125Y-0.575
X9.1375Y-3.0125
X9.2375Y-3.0125
X9.7Y-2.2625
X9.8Y-2.2625
X3.325Y-3.7625
X3.425Y-3.7625
X1.6375Y-3.0125
X1.7375Y-3.0125
X9.7Y-3.7625
X9.8Y-3.7625
X4.45Y-2.2625
X4.55Y-2.2625
X12.7Y-3.7625
X12.8Y-3.7625
X12.7Y-4.5125
X12.8Y-4.5125
X11.7625Y-1.325
X11.8625Y-1.325
X1.825Y-1.5125
X1.925Y-1.5125
X5.575Y-1.5125
X5.675Y-1.5125
X7.6375Y-3.0125
X7.7375Y-3.0125
X6.1375Y-0.575
X6.2375Y-0.575
X0.7Y-3.7625
X0.8Y-3.7625
X2.575Y-3.7625
X2.675Y-3.7625
X4.6375Y-3.0125
X4.7375Y-3.0125
X7.075Y-3.7625
X7.175Y-3.7625
X1.45Y-2.2625
X1.55Y-2.2625
X6.8875Y-0.575
X6.9875Y-0.575
X5.3875Y-3.0125
X5.4875Y-3.0125
X11.95Y-3.7625
X12.05Y-3.7625
X7.6375Y-0.575
X7.7375Y-0.575
X10.2625Y-4.7
X10.3625Y-4.7
X8.2Y-2.2625
X8.3Y-2.2625
X1.2625Y-0.575
X1.3625Y-0.575
X12.7Y-1.5125
X12.8Y-1.5125
X14.05Y-3.8875
X14.05Y-3.9875
X8.95Y-2.2625
X9.05Y-2.2625
X11.7625Y-0.575
X11.8625Y-0.575
X2.95Y-2.2625
X3.05Y-2.2625
X14.05Y-2.3875
X14.05Y-2.4875
X9.1375Y-4.5125
X9.2375Y-4.5125
X10.6375Y-2.2625
X10.7375Y-2.2625
X8.575Y-3.7625
X8.675Y-3.7625
X11.7625Y-4.7
X11.8625Y-4.7
X8.0125Y-4.5125
X8.1125Y-4.5125
X13.45Y-4.5125
X13.55Y-4.5125
X11.95Y-3.0125
X12.05Y-3.0125
X4.45Y-0.575
X4.55Y-0.575
X4.075Y-1.5125
X4.175Y-1.5125
X2.7625Y-0.575
X2.8625Y-0.575
X3.8875Y-3.0125
X3.9875Y-3.0125
X8.575Y-0.575
X8.675Y-0.575
X12.7Y-2.2625
X12.8Y-2.2625
X0.325Y-1.5125
X0.425Y-1.5125
X9.325Y-1.5125
X9.425Y-1.5125
X7.825Y-1.5125
X7.925Y-1.5125
X13.45Y-3.7625
X13.55Y-3.7625
X0.6062Y-3.0125
X0.7062Y-3.0125
X0.5125Y-2.2625
X0.6125Y-2.2625
X5.2Y-2.2625
X5.3Y-2.2625
X12.5125Y-0.575
X12.6125Y-0.575
X2.0125Y-0.575
X2.1125Y-0.575
X5.95Y-2.2625
X6.05Y-2.2625
X5.575Y-3.7625
X5.675Y-3.7625
X6.8875Y-3.0125
X6.9875Y-3.0125
X0.315Y-0.565
X0.415Y-0.565
X3.7Y-2.2625
X3.8Y-2.2625
X11.0125Y-4.7
X11.1125Y-4.7
X2.575Y-1.5125
X2.675Y-1.5125
X14.2Y-1.5125
X14.3Y-1.5125
X6.325Y-1.5125
X6.425Y-1.5125
X10.075Y-0.575
X10.175Y-0.575
X4.825Y-3.7625
X4.925Y-3.7625
X12.7Y-3.0125
X12.8Y-3.0125
X11.0125Y-3.95
X11.1125Y-3.95
X7.825Y-3.7625
X7.925Y-3.7625
X13.45Y-3.0125
X13.55Y-3.0125
X13.45Y-1.5125
X13.55Y-1.5125
X8.575Y-1.5125
X8.675Y-1.5125
X6.7Y-2.2625
X6.8Y-2.2625
X6.325Y-3.7625
X6.425Y-3.7625
X4.825Y-1.5125
X4.925Y-1.5125
X1.075Y-1.5125
X1.175Y-1.5125
X9.325Y-0.575
X9.425Y-0.575
X6.1375Y-3.0125
X6.2375Y-3.0125
X8.3875Y-3.0125
X8.4875Y-3.0125
X10.45Y-1.5125
X10.55Y-1.5125
X4.075Y-3.7625
X4.175Y-3.7625
X5.2Y-0.575
X5.3Y-0.575
X3.7Y-0.575
X3.8Y-0.575
T8
X10.3125Y-1.909
X10.3125Y-2.216
X0.375Y-3.409
X0.375Y-3.716
X6.5625Y-0.2215
X6.5625Y-0.5285
X12.375Y-4.159
X12.375Y-4.466
X10.6875Y-3.5965
X10.6875Y-3.9035
X10.0312Y-2.659
X10.0312Y-2.966
X0.8438Y-1.159
X0.8438Y-1.466
X4.875Y-1.909
X4.875Y-2.216
X4.3125Y-2.659
X4.3125Y-2.966
X13.9741Y-0.2769
X13.9741Y-0.4738
X14.545Y-0.2769
X14.545Y-0.3753
X14.545Y-0.4738
X11.3906Y-0.9715
X11.3906Y-1.2785
X14.0984Y-2.1457
X14.4055Y-2.1457
X1.875Y-1.909
X1.875Y-2.216
X9.375Y-3.409
X9.375Y-3.716
X11.3906Y-0.2215
X11.3906Y-0.5285
X2.4375Y-0.2215
X2.4375Y-0.5285
X5.8125Y-0.2215
X5.8125Y-0.5285
X11.4375Y-4.3465
X11.4375Y-4.6535
X6.75Y-3.409
X6.75Y-3.716
X8.8125Y-2.659
X8.8125Y-2.966
X0.1875Y-1.909
X0.1875Y-2.216
X0.784Y-0.9375
X1.091Y-0.9375
X7.3125Y-2.659
X7.3125Y-2.966
X6.0Y-1.159
X6.0Y-1.466
X10.125Y-1.159
X10.125Y-1.466
X13.125Y-2.659
X13.125Y-2.966
X10.6875Y-0.2215
X10.6875Y-0.5285
X1.6875Y-0.2215
X1.6875Y-0.5285
X1.875Y-4.159
X1.875Y-4.466
X4.125Y-1.909
X4.125Y-2.216
X4.875Y-0.2215
X4.875Y-0.5285
X6.0Y-3.409
X6.0Y-3.716
X13.125Y-1.909
X13.125Y-2.216
X8.0625Y-2.659
X8.0625Y-2.966
X13.875Y-1.159
X13.875Y-1.466
X13.875Y-0.4715
X13.875Y-0.7785
X1.125Y-1.909
X1.125Y-2.216
X6.5625Y-2.659
X6.5625Y-2.966
X8.25Y-3.409
X8.25Y-3.716
X5.25Y-1.159
X5.25Y-1.466
X9.75Y-0.2215
X9.75Y-0.5285
X13.125Y-4.159
X13.125Y-4.466
X0.75Y-4.159
X0.75Y-4.466
X3.5625Y-2.659
X3.5625Y-2.966
X5.25Y-3.409
X5.25Y-3.716
X13.125Y-3.409
X13.125Y-3.716
X12.375Y-1.909
X12.375Y-2.216
X13.125Y-1.159
X13.125Y-1.466
X9.0Y-1.159
X9.0Y-1.466
X12.9375Y-0.2215
X12.9375Y-0.5285
X8.25Y-0.2215
X8.25Y-0.5285
X12.375Y-2.659
X12.375Y-2.966
X5.8125Y-2.659
X5.8125Y-2.966
X9.375Y-1.909
X9.375Y-2.216
X7.5Y-3.409
X7.5Y-3.716
X10.6875Y-4.3465
X10.6875Y-4.6535
X4.5Y-1.159
X4.5Y-1.466
X3.75Y-3.409
X3.75Y-3.716
X12.2344Y-0.2215
X12.2344Y-0.5285
X0.9375Y-0.2215
X0.9375Y-0.5285
X3.75Y-1.159
X3.75Y-1.466
X8.8125Y-4.159
X8.8125Y-4.466
X3.375Y-1.909
X3.375Y-2.216
X14.0984Y-3.6417
X14.4055Y-3.6417
X3.0Y-1.159
X3.0Y-1.466
X2.8125Y-2.659
X2.8125Y-2.966
X12.375Y-3.409
X12.375Y-3.716
X12.375Y-1.159
X12.375Y-1.466
X4.125Y-0.2215
X4.125Y-0.5285
X6.375Y-1.909
X6.375Y-2.216
X8.25Y-1.159
X8.25Y-1.466
X7.3125Y-0.2215
X7.3125Y-0.5285
X2.25Y-1.159
X2.25Y-1.466
X5.0625Y-2.659
X5.0625Y-2.966
X11.625Y-2.659
X11.625Y-2.966
X8.625Y-1.909
X8.625Y-2.216
X9.9375Y-4.3465
X9.9375Y-4.6535
X0.8438Y-0.2215
X0.8438Y-0.5285
X9.0Y-0.2215
X9.0Y-0.5285
X4.5Y-3.409
X4.5Y-3.716
X2.0625Y-2.659
X2.0625Y-2.966
X1.3125Y-2.659
X1.3125Y-2.966
X2.625Y-1.909
X2.625Y-2.216
X3.0Y-3.409
X3.0Y-3.716
X5.625Y-1.909
X5.625Y-2.216
X7.5Y-1.159
X7.5Y-1.466
X11.625Y-1.909
X11.625Y-2.216
X7.6875Y-4.159
X7.6875Y-4.466
X1.5Y-3.409
X1.5Y-3.716
X11.625Y-3.409
X11.625Y-3.716
X4.7812Y-4.159
X4.7812Y-4.466
X3.375Y-0.2215
X3.375Y-0.5285
X1.5Y-1.159
X1.5Y-1.466
X7.875Y-1.909
X7.875Y-2.216
X2.25Y-3.409
X2.25Y-3.716
X0.2812Y-2.659
X0.2812Y-2.966
X7.125Y-1.909
X7.125Y-2.216
X6.75Y-1.159
X6.75Y-1.466
T9
X0.075Y0.2
X0.075Y0.1
X0.075Y0.0
X0.075Y-0.1
X0.075Y-0.2
X0.075Y-0.3
X0.075Y-0.4
X0.075Y-0.5
X0.075Y-0.6
X0.075Y-0.7
X0.075Y-0.8
X0.075Y-0.9
X0.075Y-1.0
X0.075Y-1.1
X0.075Y-1.2
X0.075Y-1.3
X0.075Y-1.4
X0.075Y-1.5
X0.075Y-1.6
X0.075Y-1.7
X0.275Y-1.1
X0.275Y-1.2
X0.275Y-1.3
X0.275Y-1.4
X0.275Y-1.7
X0.375Y-1.1
X0.375Y-1.2
X0.375Y-1.3
X0.375Y-1.4
X0.375Y-1.7
X0.475Y-1.4
X0.475Y-1.7
X0.675Y0.2
X0.675Y0.1
X0.675Y0.0
X0.675Y-0.1
X0.675Y-0.2
X0.675Y-0.3
X0.675Y-0.4
X0.675Y-0.5
X0.675Y-0.6
X0.675Y-0.7
X0.675Y-0.8
X0.675Y-0.9
X0.675Y-1.0
X0.675Y-1.1
X0.675Y-1.2
X0.675Y-1.3
X0.675Y-1.4
X0.675Y-1.5
X0.675Y-1.6
X0.675Y-1.7
T10
X3.1481Y0.098
X3.4241Y0.098
T12
X4.725Y-1.2125
X4.775Y-1.1125
X4.7766Y-1.1353
X4.7766Y-1.155
X4.9734Y-1.1353
X4.9734Y-1.155
X4.975Y-1.1125
X5.025Y-1.2125
X0.975Y-1.2125
X1.025Y-1.1125
X1.0266Y-1.1353
X1.0266Y-1.155
X1.2234Y-1.1353
X1.2234Y-1.155
X1.225Y-1.1125
X1.275Y-1.2125
X9.225Y-0.275
X9.275Y-0.175
X9.2766Y-0.1978
X9.2766Y-0.2175
X9.4734Y-0.1978
X9.4734Y-0.2175
X9.475Y-0.175
X9.525Y-0.275
X6.0375Y-2.7125
X6.0875Y-2.6125
X6.0891Y-2.6353
X6.0891Y-2.655
X6.2859Y-2.6353
X6.2859Y-2.655
X6.2875Y-2.6125
X6.3375Y-2.7125
X8.2875Y-2.7125
X8.3375Y-2.6125
X8.3391Y-2.6353
X8.3391Y-2.655
X8.5359Y-2.6353
X8.5359Y-2.655
X8.5375Y-2.6125
X8.5875Y-2.7125
X10.35Y-1.2125
X10.4Y-1.1125
X10.4016Y-1.1353
X10.4016Y-1.155
X10.5984Y-1.1353
X10.5984Y-1.155
X10.6Y-1.1125
X10.65Y-1.2125
X3.975Y-3.4625
X4.025Y-3.3625
X4.0266Y-3.3853
X4.0266Y-3.405
X4.2234Y-3.3853
X4.2234Y-3.405
X4.225Y-3.3625
X4.275Y-3.4625
X5.1Y-0.275
X5.15Y-0.175
X5.1516Y-0.1978
X5.1516Y-0.2175
X5.3484Y-0.1978
X5.3484Y-0.2175
X5.35Y-0.175
X5.4Y-0.275
X3.6Y-0.275
X3.65Y-0.175
X3.6516Y-0.1978
X3.6516Y-0.2175
X3.8484Y-0.1978
X3.8484Y-0.2175
X3.85Y-0.175
X3.9Y-0.275
X3.225Y-1.2125
X3.275Y-1.1125
X3.2766Y-1.1353
X3.2766Y-1.155
X3.4734Y-1.1353
X3.4734Y-1.155
X3.475Y-1.1125
X3.525Y-1.2125
X7.35Y-1.9625
X7.4Y-1.8625
X7.4016Y-1.8853
X7.4016Y-1.905
X7.5984Y-1.8853
X7.5984Y-1.905
X7.6Y-1.8625
X7.65Y-1.9625
X0.975Y-4.2125
X1.025Y-4.1125
X1.0266Y-4.1353
X1.0266Y-4.155
X1.2234Y-4.1353
X1.2234Y-4.155
X1.225Y-4.1125
X1.275Y-4.2125
X10.2562Y-2.7125
X10.3063Y-2.6125
X10.3078Y-2.6353
X10.3078Y-2.655
X10.5047Y-2.6353
X10.5047Y-2.655
X10.5062Y-2.6125
X10.5563Y-2.7125
X2.1Y-1.9625
X2.15Y-1.8625
X2.1516Y-1.8853
X2.1516Y-1.905
X2.3484Y-1.8853
X2.3484Y-1.905
X2.35Y-1.8625
X2.4Y-1.9625
X3.0375Y-2.7125
X3.0875Y-2.6125
X3.0891Y-2.6353
X3.0891Y-2.655
X3.2859Y-2.6353
X3.2859Y-2.655
X3.2875Y-2.6125
X3.3375Y-2.7125
X13.1625Y-0.275
X13.2125Y-0.175
X13.2141Y-0.1978
X13.2141Y-0.2175
X13.4109Y-0.1978
X13.4109Y-0.2175
X13.4125Y-0.175
X13.4625Y-0.275
X11.85Y-1.9625
X11.9Y-1.8625
X11.9016Y-1.8853
X11.9016Y-1.905
X12.0984Y-1.8853
X12.0984Y-1.905
X12.1Y-1.8625
X12.15Y-1.9625
X6.975Y-1.2125
X7.025Y-1.1125
X7.0266Y-1.1353
X7.0266Y-1.155
X7.2234Y-1.1353
X7.2234Y-1.155
X7.225Y-1.1125
X7.275Y-1.2125
X2.2875Y-2.7125
X2.3375Y-2.6125
X2.3391Y-2.6353
X2.3391Y-2.655
X2.5359Y-2.6353
X2.5359Y-2.655
X2.5375Y-2.6125
X2.5875Y-2.7125
X2.1Y-4.2125
X2.15Y-4.1125
X2.1516Y-4.1353
X2.1516Y-4.155
X2.3484Y-4.1353
X2.3484Y-4.155
X2.35Y-4.1125
X2.4Y-4.2125
X1.725Y-3.4625
X1.775Y-3.3625
X1.7766Y-3.3853
X1.7766Y-3.405
X1.9734Y-3.3853
X1.9734Y-3.405
X1.975Y-3.3625
X2.025Y-3.4625
X13.35Y-1.9625
X13.4Y-1.8625
X13.4016Y-1.8853
X13.4016Y-1.905
X13.5984Y-1.8853
X13.5984Y-1.905
X13.6Y-1.8625
X13.65Y-1.9625
X10.9125Y-0.275
X10.9625Y-0.175
X10.9641Y-0.1978
X10.9641Y-0.2175
X11.1609Y-0.1978
X11.1609Y-0.2175
X11.1625Y-0.175
X11.2125Y-0.275
X9.0375Y-2.7125
X9.0875Y-2.6125
X9.0891Y-2.6353
X9.0891Y-2.655
X9.2859Y-2.6353
X9.2859Y-2.655
X9.2875Y-2.6125
X9.3375Y-2.7125
X9.6Y-1.9625
X9.65Y-1.8625
X9.6516Y-1.8853
X9.6516Y-1.905
X9.8484Y-1.8853
X9.8484Y-1.905
X9.85Y-1.8625
X9.9Y-1.9625
X3.225Y-3.4625
X3.275Y-3.3625
X3.2766Y-3.3853
X3.2766Y-3.405
X3.4734Y-3.3853
X3.4734Y-3.405
X3.475Y-3.3625
X3.525Y-3.4625
X1.5375Y-2.7125
X1.5875Y-2.6125
X1.5891Y-2.6353
X1.5891Y-2.655
X1.7859Y-2.6353
X1.7859Y-2.655
X1.7875Y-2.6125
X1.8375Y-2.7125
X9.6Y-3.4625
X9.65Y-3.3625
X9.6516Y-3.3853
X9.6516Y-3.405
X9.8484Y-3.3853
X9.8484Y-3.405
X9.85Y-3.3625
X9.9Y-3.4625
X4.35Y-1.9625
X4.4Y-1.8625
X4.4016Y-1.8853
X4.4016Y-1.905
X4.5984Y-1.8853
X4.5984Y-1.905
X4.6Y-1.8625
X4.65Y-1.9625
X12.6Y-3.4625
X12.65Y-3.3625
X12.6516Y-3.3853
X12.6516Y-3.405
X12.8484Y-3.3853
X12.8484Y-3.405
X12.85Y-3.3625
X12.9Y-3.4625
X12.6Y-4.2125
X12.65Y-4.1125
X12.6516Y-4.1353
X12.6516Y-4.155
X12.8484Y-4.1353
X12.8484Y-4.155
X12.85Y-4.1125
X12.9Y-4.2125
X11.6625Y-1.025
X11.7125Y-0.925
X11.7141Y-0.9478
X11.7141Y-0.9675
X11.9109Y-0.9478
X11.9109Y-0.9675
X11.9125Y-0.925
X11.9625Y-1.025
X1.725Y-1.2125
X1.775Y-1.1125
X1.7766Y-1.1353
X1.7766Y-1.155
X1.9734Y-1.1353
X1.9734Y-1.155
X1.975Y-1.1125
X2.025Y-1.2125
X5.475Y-1.2125
X5.525Y-1.1125
X5.5266Y-1.1353
X5.5266Y-1.155
X5.7234Y-1.1353
X5.7234Y-1.155
X5.725Y-1.1125
X5.775Y-1.2125
X7.5375Y-2.7125
X7.5875Y-2.6125
X7.5891Y-2.6353
X7.5891Y-2.655
X7.7859Y-2.6353
X7.7859Y-2.655
X7.7875Y-2.6125
X7.8375Y-2.7125
X6.0375Y-0.275
X6.0875Y-0.175
X6.0891Y-0.1978
X6.0891Y-0.2175
X6.2859Y-0.1978
X6.2859Y-0.2175
X6.2875Y-0.175
X6.3375Y-0.275
X0.6Y-3.4625
X0.65Y-3.3625
X0.6516Y-3.3853
X0.6516Y-3.405
X0.8484Y-3.3853
X0.8484Y-3.405
X0.85Y-3.3625
X0.9Y-3.4625
X2.475Y-3.4625
X2.525Y-3.3625
X2.5266Y-3.3853
X2.5266Y-3.405
X2.7234Y-3.3853
X2.7234Y-3.405
X2.725Y-3.3625
X2.775Y-3.4625
X4.5375Y-2.7125
X4.5875Y-2.6125
X4.5891Y-2.6353
X4.5891Y-2.655
X4.7859Y-2.6353
X4.7859Y-2.655
X4.7875Y-2.6125
X4.8375Y-2.7125
X6.975Y-3.4625
X7.025Y-3.3625
X7.0266Y-3.3853
X7.0266Y-3.405
X7.2234Y-3.3853
X7.2234Y-3.405
X7.225Y-3.3625
X7.275Y-3.4625
X1.35Y-1.9625
X1.4Y-1.8625
X1.4016Y-1.8853
X1.4016Y-1.905
X1.5984Y-1.8853
X1.5984Y-1.905
X1.6Y-1.8625
X1.65Y-1.9625
X6.7875Y-0.275
X6.8375Y-0.175
X6.8391Y-0.1978
X6.8391Y-0.2175
X7.0359Y-0.1978
X7.0359Y-0.2175
X7.0375Y-0.175
X7.0875Y-0.275
X5.2875Y-2.7125
X5.3375Y-2.6125
X5.3391Y-2.6353
X5.3391Y-2.655
X5.5359Y-2.6353
X5.5359Y-2.655
X5.5375Y-2.6125
X5.5875Y-2.7125
X11.85Y-3.4625
X11.9Y-3.3625
X11.9016Y-3.3853
X11.9016Y-3.405
X12.0984Y-3.3853
X12.0984Y-3.405
X12.1Y-3.3625
X12.15Y-3.4625
X7.5375Y-0.275
X7.5875Y-0.175
X7.5891Y-0.1978
X7.5891Y-0.2175
X7.7859Y-0.1978
X7.7859Y-0.2175
X7.7875Y-0.175
X7.8375Y-0.275
X10.1625Y-4.4
X10.2125Y-4.3
X10.2141Y-4.3228
X10.2141Y-4.3425
X10.4109Y-4.3228
X10.4109Y-4.3425
X10.4125Y-4.3
X10.4625Y-4.4
X8.1Y-1.9625
X8.15Y-1.8625
X8.1516Y-1.8853
X8.1516Y-1.905
X8.3484Y-1.8853
X8.3484Y-1.905
X8.35Y-1.8625
X8.4Y-1.9625
X1.1625Y-0.275
X1.2125Y-0.175
X1.2141Y-0.1978
X1.2141Y-0.2175
X1.4109Y-0.1978
X1.4109Y-0.2175
X1.4125Y-0.175
X1.4625Y-0.275
X12.6Y-1.2125
X12.65Y-1.1125
X12.6516Y-1.1353
X12.6516Y-1.155
X12.8484Y-1.1353
X12.8484Y-1.155
X12.85Y-1.1125
X12.9Y-1.2125
X14.35Y-3.7875
X14.35Y-4.0875
X14.4075Y-3.8391
X14.4075Y-4.0359
X14.4272Y-3.8391
X14.4272Y-4.0359
X14.45Y-3.8375
X14.45Y-4.0375
X8.85Y-1.9625
X8.9Y-1.8625
X8.9016Y-1.8853
X8.9016Y-1.905
X9.0984Y-1.8853
X9.0984Y-1.905
X9.1Y-1.8625
X9.15Y-1.9625
X11.6625Y-0.275
X11.7125Y-0.175
X11.7141Y-0.1978
X11.7141Y-0.2175
X11.9109Y-0.1978
X11.9109Y-0.2175
X11.9125Y-0.175
X11.9625Y-0.275
X2.85Y-1.9625
X2.9Y-1.8625
X2.9016Y-1.8853
X2.9016Y-1.905
X3.0984Y-1.8853
X3.0984Y-1.905
X3.1Y-1.8625
X3.15Y-1.9625
X14.35Y-2.2875
X14.35Y-2.5875
X14.4075Y-2.3391
X14.4075Y-2.5359
X14.4272Y-2.3391
X14.4272Y-2.5359
X14.45Y-2.3375
X14.45Y-2.5375
X9.0375Y-4.2125
X9.0875Y-4.1125
X9.0891Y-4.1353
X9.0891Y-4.155
X9.2859Y-4.1353
X9.2859Y-4.155
X9.2875Y-4.1125
X9.3375Y-4.2125
X10.5375Y-1.9625
X10.5875Y-1.8625
X10.5891Y-1.8853
X10.5891Y-1.905
X10.7859Y-1.8853
X10.7859Y-1.905
X10.7875Y-1.8625
X10.8375Y-1.9625
X8.475Y-3.4625
X8.525Y-3.3625
X8.5266Y-3.3853
X8.5266Y-3.405
X8.7234Y-3.3853
X8.7234Y-3.405
X8.725Y-3.3625
X8.775Y-3.4625
X11.6625Y-4.4
X11.7125Y-4.3
X11.7141Y-4.3228
X11.7141Y-4.3425
X11.9109Y-4.3228
X11.9109Y-4.3425
X11.9125Y-4.3
X11.9625Y-4.4
X7.9125Y-4.2125
X7.9625Y-4.1125
X7.9641Y-4.1353
X7.9641Y-4.155
X8.1609Y-4.1353
X8.1609Y-4.155
X8.1625Y-4.1125
X8.2125Y-4.2125
X13.35Y-4.2125
X13.4Y-4.1125
X13.4016Y-4.1353
X13.4016Y-4.155
X13.5984Y-4.1353
X13.5984Y-4.155
X13.6Y-4.1125
X13.65Y-4.2125
X11.85Y-2.7125
X11.9Y-2.6125
X11.9016Y-2.6353
X11.9016Y-2.655
X12.0984Y-2.6353
X12.0984Y-2.655
X12.1Y-2.6125
X12.15Y-2.7125
X4.35Y-0.275
X4.4Y-0.175
X4.4016Y-0.1978
X4.4016Y-0.2175
X4.5984Y-0.1978
X4.5984Y-0.2175
X4.6Y-0.175
X4.65Y-0.275
X3.975Y-1.2125
X4.025Y-1.1125
X4.0266Y-1.1353
X4.0266Y-1.155
X4.2234Y-1.1353
X4.2234Y-1.155
X4.225Y-1.1125
X4.275Y-1.2125
X2.6625Y-0.275
X2.7125Y-0.175
X2.7141Y-0.1978
X2.7141Y-0.2175
X2.9109Y-0.1978
X2.9109Y-0.2175
X2.9125Y-0.175
X2.9625Y-0.275
X3.7875Y-2.7125
X3.8375Y-2.6125
X3.8391Y-2.6353
X3.8391Y-2.655
X4.0359Y-2.6353
X4.0359Y-2.655
X4.0375Y-2.6125
X4.0875Y-2.7125
X8.475Y-0.275
X8.525Y-0.175
X8.5266Y-0.1978
X8.5266Y-0.2175
X8.7234Y-0.1978
X8.7234Y-0.2175
X8.725Y-0.175
X8.775Y-0.275
X12.6Y-1.9625
X12.65Y-1.8625
X12.6516Y-1.8853
X12.6516Y-1.905
X12.8484Y-1.8853
X12.8484Y-1.905
X12.85Y-1.8625
X12.9Y-1.9625
X0.225Y-1.2125
X0.275Y-1.1125
X0.2766Y-1.1353
X0.2766Y-1.155
X0.4734Y-1.1353
X0.4734Y-1.155
X0.475Y-1.1125
X0.525Y-1.2125
X9.225Y-1.2125
X9.275Y-1.1125
X9.2766Y-1.1353
X9.2766Y-1.155
X9.4734Y-1.1353
X9.4734Y-1.155
X9.475Y-1.1125
X9.525Y-1.2125
X7.725Y-1.2125
X7.775Y-1.1125
X7.7766Y-1.1353
X7.7766Y-1.155
X7.9734Y-1.1353
X7.9734Y-1.155
X7.975Y-1.1125
X8.025Y-1.2125
X13.35Y-3.4625
X13.4Y-3.3625
X13.4016Y-3.3853
X13.4016Y-3.405
X13.5984Y-3.3853
X13.5984Y-3.405
X13.6Y-3.3625
X13.65Y-3.4625
X0.5062Y-2.7125
X0.5563Y-2.6125
X0.5578Y-2.6353
X0.5578Y-2.655
X0.7547Y-2.6353
X0.7547Y-2.655
X0.7562Y-2.6125
X0.8063Y-2.7125
X0.4125Y-1.9625
X0.4625Y-1.8625
X0.4641Y-1.8853
X0.4641Y-1.905
X0.6609Y-1.8853
X0.6609Y-1.905
X0.6625Y-1.8625
X0.7125Y-1.9625
X5.1Y-1.9625
X5.15Y-1.8625
X5.1516Y-1.8853
X5.1516Y-1.905
X5.3484Y-1.8853
X5.3484Y-1.905
X5.35Y-1.8625
X5.4Y-1.9625
X12.4125Y-0.275
X12.4625Y-0.175
X12.4641Y-0.1978
X12.4641Y-0.2175
X12.6609Y-0.1978
X12.6609Y-0.2175
X12.6625Y-0.175
X12.7125Y-0.275
X1.9125Y-0.275
X1.9625Y-0.175
X1.9641Y-0.1978
X1.9641Y-0.2175
X2.1609Y-0.1978
X2.1609Y-0.2175
X2.1625Y-0.175
X2.2125Y-0.275
X5.85Y-1.9625
X5.9Y-1.8625
X5.9016Y-1.8853
X5.9016Y-1.905
X6.0984Y-1.8853
X6.0984Y-1.905
X6.1Y-1.8625
X6.15Y-1.9625
X5.475Y-3.4625
X5.525Y-3.3625
X5.5266Y-3.3853
X5.5266Y-3.405
X5.7234Y-3.3853
X5.7234Y-3.405
X5.725Y-3.3625
X5.775Y-3.4625
X6.7875Y-2.7125
X6.8375Y-2.6125
X6.8391Y-2.6353
X6.8391Y-2.655
X7.0359Y-2.6353
X7.0359Y-2.655
X7.0375Y-2.6125
X7.0875Y-2.7125
X0.215Y-0.265
X0.265Y-0.165
X0.2666Y-0.1878
X0.2666Y-0.2075
X0.4634Y-0.1878
X0.4634Y-0.2075
X0.465Y-0.165
X0.515Y-0.265
X3.6Y-1.9625
X3.65Y-1.8625
X3.6516Y-1.8853
X3.6516Y-1.905
X3.8484Y-1.8853
X3.8484Y-1.905
X3.85Y-1.8625
X3.9Y-1.9625
X10.9125Y-4.4
X10.9625Y-4.3
X10.9641Y-4.3228
X10.9641Y-4.3425
X11.1609Y-4.3228
X11.1609Y-4.3425
X11.1625Y-4.3
X11.2125Y-4.4
X2.475Y-1.2125
X2.525Y-1.1125
X2.5266Y-1.1353
X2.5266Y-1.155
X2.7234Y-1.1353
X2.7234Y-1.155
X2.725Y-1.1125
X2.775Y-1.2125
X14.1Y-1.2125
X14.15Y-1.1125
X14.1516Y-1.1353
X14.1516Y-1.155
X14.3484Y-1.1353
X14.3484Y-1.155
X14.35Y-1.1125
X14.4Y-1.2125
X6.225Y-1.2125
X6.275Y-1.1125
X6.2766Y-1.1353
X6.2766Y-1.155
X6.4734Y-1.1353
X6.4734Y-1.155
X6.475Y-1.1125
X6.525Y-1.2125
X9.975Y-0.275
X10.025Y-0.175
X10.0266Y-0.1978
X10.0266Y-0.2175
X10.2234Y-0.1978
X10.2234Y-0.2175
X10.225Y-0.175
X10.275Y-0.275
X4.725Y-3.4625
X4.775Y-3.3625
X4.7766Y-3.3853
X4.7766Y-3.405
X4.9734Y-3.3853
X4.9734Y-3.405
X4.975Y-3.3625
X5.025Y-3.4625
X12.6Y-2.7125
X12.65Y-2.6125
X12.6516Y-2.6353
X12.6516Y-2.655
X12.8484Y-2.6353
X12.8484Y-2.655
X12.85Y-2.6125
X12.9Y-2.7125
X10.9125Y-3.65
X10.9625Y-3.55
X10.9641Y-3.5728
X10.9641Y-3.5925
X11.1609Y-3.5728
X11.1609Y-3.5925
X11.1625Y-3.55
X11.2125Y-3.65
X7.725Y-3.4625
X7.775Y-3.3625
X7.7766Y-3.3853
X7.7766Y-3.405
X7.9734Y-3.3853
X7.9734Y-3.405
X7.975Y-3.3625
X8.025Y-3.4625
X13.35Y-2.7125
X13.4Y-2.6125
X13.4016Y-2.6353
X13.4016Y-2.655
X13.5984Y-2.6353
X13.5984Y-2.655
X13.6Y-2.6125
X13.65Y-2.7125
X13.35Y-1.2125
X13.4Y-1.1125
X13.4016Y-1.1353
X13.4016Y-1.155
X13.5984Y-1.1353
X13.5984Y-1.155
X13.6Y-1.1125
X13.65Y-1.2125
X8.475Y-1.2125
X8.525Y-1.1125
X8.5266Y-1.1353
X8.5266Y-1.155
X8.7234Y-1.1353
X8.7234Y-1.155
X8.725Y-1.1125
X8.775Y-1.2125
X6.6Y-1.9625
X6.65Y-1.8625
X6.6516Y-1.8853
X6.6516Y-1.905
X6.8484Y-1.8853
X6.8484Y-1.905
X6.85Y-1.8625
X6.9Y-1.9625
X6.225Y-3.4625
X6.275Y-3.3625
X6.2766Y-3.3853
X6.2766Y-3.405
X6.4734Y-3.3853
X6.4734Y-3.405
X6.475Y-3.3625
X6.525Y-3.4625
T13
X14.3701Y-4.626
X4.5276Y-4.626
X6.3976Y0.1969
X9.6457Y-4.626
X0.0984Y-4.626
X13.6811Y0.1969
X0.0787Y-2.6772
X11.4173Y-2.5591
T11
G00X5.0578Y-4.1353
M15
G01X5.0563Y-4.1125
M16
G05
G00X5.3063Y-4.2125
M15
G01X5.2743Y-4.155
M16
G05
G00X14.2753Y-0.1549
M15
G01X14.2241Y-0.1549
M16
G05
G00X14.2753Y-0.5958
M15
G01X14.2241Y-0.5958
M16
G05
T0
M30
